<svg width="46" height="46" viewBox="0 0 46 46" fill="none" xmlns="http://www.w3.org/2000/svg">
<circle cx="23.3574" cy="23" r="22.5" fill="url(#paint0_linear_26_29)"/>
<circle cx="23.3574" cy="23" r="20.885" stroke="#CA8925" stroke-opacity="0.26" stroke-width="3.23"/>
<path d="M12.1957 30.9951V17.2224H15.6388V28.3432H22.1402V30.9951H12.1957ZM30.0962 31.2089C27.7152 31.2089 25.9045 30.6101 24.6641 29.4125C23.4237 28.2006 22.8035 26.4968 22.8035 24.3012C22.8035 22.0057 23.438 20.2164 24.7069 18.9333C25.9758 17.6501 27.8435 17.0085 30.3101 17.0085C31.1513 17.0085 31.9069 17.0584 32.577 17.1582C33.2614 17.258 33.9101 17.4077 34.5231 17.6073V20.5586C33.9101 20.3305 33.2685 20.1737 32.5984 20.0881C31.9425 20.0026 31.2653 19.9598 30.5667 19.9598C29.0839 19.9598 28.0004 20.3162 27.316 21.0291C26.6459 21.7277 26.3109 22.8184 26.3109 24.3012C26.3109 25.6557 26.6317 26.6608 27.2732 27.3166C27.9148 27.9582 28.8629 28.279 30.1176 28.279C30.9445 28.279 31.7144 28.165 32.4273 27.9368V25.3277H29.4546V23.1677H35.3144V29.9899C34.8297 30.3036 34.1524 30.5887 33.2827 30.8454C32.4273 31.0877 31.3651 31.2089 30.0962 31.2089Z" fill="#BF790C" fill-opacity="0.85"/>
<defs>
<linearGradient id="paint0_linear_26_29" x1="39.6742" y1="4.1355" x2="8.38605" y2="43.8683" gradientUnits="userSpaceOnUse">
<stop stop-color="#FFDE85"/>
<stop offset="1" stop-color="#FEB535"/>
</linearGradient>
</defs>
</svg>
