<svg width="23" height="23" viewBox="0 0 23 23" fill="none" xmlns="http://www.w3.org/2000/svg">
<path d="M16.3748 14.5H15.3873L15.0373 14.1625C15.8185 13.255 16.3895 12.186 16.7093 11.032C17.0291 9.87807 17.0899 8.66769 16.8873 7.4875C16.2998 4.0125 13.3998 1.2375 9.89985 0.812499C8.66937 0.656831 7.41958 0.784714 6.24613 1.18636C5.07267 1.58801 4.00665 2.25277 3.12964 3.12979C2.25262 4.0068 1.58785 5.07283 1.18621 6.24628C0.784561 7.41973 0.656679 8.66952 0.812346 9.9C1.23735 13.4 4.01235 16.3 7.48735 16.8875C8.66754 17.0901 9.87791 17.0293 11.0319 16.7094C12.1858 16.3896 13.2548 15.8187 14.1623 15.0375L14.4998 15.3875V16.375L19.8123 21.6875C20.3248 22.2 21.1623 22.2 21.6748 21.6875C22.1873 21.175 22.1873 20.3375 21.6748 19.825L16.3748 14.5ZM8.87485 14.5C5.76235 14.5 3.24985 11.9875 3.24985 8.875C3.24985 5.7625 5.76235 3.25 8.87485 3.25C11.9873 3.25 14.4998 5.7625 14.4998 8.875C14.4998 11.9875 11.9873 14.5 8.87485 14.5Z" fill="url(#paint0_linear_10_15)"/>
<defs>
<linearGradient id="paint0_linear_10_15" x1="0.748047" y1="11.41" x2="22.0592" y2="11.41" gradientUnits="userSpaceOnUse">
<stop stop-color="#015BA6"/>
<stop offset="1" stop-color="#1B98FF"/>
</linearGradient>
</defs>
</svg>
